<svg xmlns="http://www.w3.org/2000/svg" viewBox="0 0 24 24" fill="#d9a441">
<rect width="24" height="24" rx="5" fill="#14171d"/>
<path transform="translate(0,-0.5)" d="M12 3.5C7.9 3.5 5 6.3 5 10.2c0 2.1.9 3.5 2 4.4.4.3.6.8.6 1.3v1.1c0 .7.5 1.2 1.2 1.2h.3v-1.8a.75.75 0 0 1 1.5 0V18.2h1.2v-1.8a.75.75 0 0 1 1.5 0V18.2h1.2v-1.8a.75.75 0 0 1 1.5 0V18.2h.3c.7 0 1.2-.5 1.2-1.2v-1.1c0-.5.2-1 .6-1.3 1.1-.9 2-2.3 2-4.4C19 6.3 16.1 3.5 12 3.5Zm-2.8 9a1.7 1.7 0 1 1 0-3.5 1.7 1.7 0 0 1 0 3.5Zm5.6 0a1.7 1.7 0 1 1 0-3.5 1.7 1.7 0 0 1 0 3.5Z"/>
</svg>
